<svg xmlns="http://www.w3.org/2000/svg" width="512" height="512" viewBox="0 0 485.945 485.945"><g fill="#FFF"><path d="M54.508 80.484H10.266C4.586 80.484 0 85.086 0 90.766v304.411c0 5.68 4.586 10.284 10.266 10.284h44.242c5.664 0 10.285-4.604 10.285-10.284V90.766c0-5.681-4.621-10.282-10.285-10.282zM475.66 80.484h-44.24c-5.682 0-10.268 4.602-10.268 10.281v304.411c0 5.68 4.586 10.284 10.268 10.284h44.24c5.664 0 10.285-4.604 10.285-10.284V90.766c0-5.681-4.621-10.282-10.285-10.282zM137.684 90.766c0-5.68-4.621-10.281-10.281-10.281H99.356c-5.68 0-10.266 4.602-10.266 10.281v217.031c0 5.659 4.586 10.267 10.266 10.267h28.047c5.66 0 10.281-4.605 10.281-10.267V90.766zM164.149 318.062h28.047c5.66 0 10.281-4.605 10.281-10.266V90.766c0-5.68-4.621-10.281-10.281-10.281h-28.047c-5.68 0-10.266 4.602-10.266 10.281v217.031c0 5.659 4.586 10.265 10.266 10.265zM228.942 318.062h28.047c5.659 0 10.279-4.605 10.279-10.266V90.766c0-5.68-4.62-10.281-10.279-10.281h-28.047c-5.68 0-10.27 4.602-10.27 10.281v217.031c0 5.659 4.59 10.265 10.27 10.265zM332.062 307.797V90.766c0-5.68-4.62-10.281-10.284-10.281h-28.042c-5.682 0-10.271 4.602-10.271 10.281v217.031c0 5.659 4.59 10.267 10.271 10.267h28.042c5.663-.002 10.284-4.608 10.284-10.267zM396.855 307.797V90.766c0-5.68-4.621-10.281-10.285-10.281h-28.043c-5.681 0-10.271 4.602-10.271 10.281v217.031c0 5.659 4.59 10.267 10.271 10.267h28.043c5.664-.002 10.285-4.608 10.285-10.267zM118.668 369.835v-.301c6.359-3.181 9.332-8.621 9.332-14.188 0-7.832-6.246-16.563-21.336-16.563-12.895 0-22.715 7.242-22.715 18.16 0 5.645 3.082 10.898 9.316 14.094v.285c-7.039 3.066-11.5 8.445-11.5 16.164 0 8.734 7.543 17.973 23.902 17.973 14.996 0 24.801-7.848 24.801-19.555.001-8.334-5.534-13.681-11.8-16.069zm-12.683-20.831c5.535 0 7.828 3.97 7.828 7.94 0 4.063-3.086 7.228-6.547 8.223-5.176-1.582-9.129-4.348-9.129-8.715 0-4.082 2.688-7.448 7.848-7.448zm.281 46.047c-5.66 0-9.219-4.367-9.125-9.048 0-4.651 2.879-8.228 7.828-9.62 5.965 1.582 10.125 4.969 10.125 10.616 0 4.571-3.48 8.052-8.828 8.052zM161.411 338.785c-16.672 0-24.613 14.789-24.613 33.438.094 18.242 7.434 33.237 24.109 33.237 16.48 0 24.5-13.698 24.5-33.633 0-17.667-6.754-33.042-23.996-33.042zm-.11 55.254c-5.855 0-9.43-7.039-9.316-21.815-.113-14.979 3.668-22.035 9.219-22.035 6.059 0 9.129 7.531 9.129 21.832-.001 14.678-3.18 22.018-9.032 22.018zM215.953 338.785c-14.207 0-24.328 10.613-24.328 23.203 0 12.516 9.238 20.156 20.152 20.156 5.852 0 10.027-1.695 12.906-4.668l.285.094c-1.184 4.855-3.969 9.031-8.129 11.914-3.48 2.371-8.133 3.668-12.703 3.953-.316.031-.617.047-.902.062a5.997 5.997 0 0 0-5.648 5.98v.758c0 1.395.57 2.723 1.566 3.672a5.015 5.015 0 0 0 3.734 1.422c.508 0 1.027-.031 1.551-.078 10.012-.395 18.445-3.465 24.613-9.03 7.023-6.457 11.293-16.263 11.293-29.66.001-15.079-7.827-27.778-24.39-27.778zm8.227 28.363c-1.395 2.293-4.273 4.27-8.336 4.27-6.156 0-9.129-4.762-9.129-10.312-.094-6.738 3.672-11.313 8.828-11.313 6.848 0 9.426 6.756 9.426 13.592 0 1.896-.285 2.877-.789 3.763zM274.403 339.874h-3.591a7.174 7.174 0 0 0-3.087.682l-11.516 5.361a5.61 5.61 0 0 0-3.117 6.299 5.556 5.556 0 0 0 3.008 3.826 5.59 5.59 0 0 0 4.889.031l5.918-2.814h.203v43.813a7.293 7.293 0 1 0 14.586 0v-49.905a7.284 7.284 0 0 0-7.293-7.293zM326.492 338.785c-16.672 0-24.599 14.789-24.599 33.438.095 18.242 7.453 33.237 24.125 33.237 16.449 0 24.484-13.698 24.484-33.633.002-17.667-6.736-33.042-24.01-33.042zm-.094 55.254c-5.853 0-9.431-7.039-9.314-21.815-.113-14.979 3.65-22.035 9.223-22.035 6.06 0 9.125 7.531 9.125 21.832-.002 14.678-3.182 22.018-9.034 22.018zM397.105 339.874H364.82a6.201 6.201 0 0 0 0 12.402h23.362a.83.83 0 0 1-.094.379l-21.227 41.431c-1.125 2.199-1.017 4.794.25 6.914a7.124 7.124 0 0 0 6.043 3.365 7.095 7.095 0 0 0 6.358-3.981l23.949-49.527a7.06 7.06 0 0 0 .693-3.07v-.854a7.051 7.051 0 0 0-7.049-7.059z"/></g></svg>