<svg xmlns="http://www.w3.org/2000/svg" viewBox="0 0 486.392 486.392" width="512" height="512"><g fill="#FFF"><path d="M0 151.997v60.799h212.796v-91.198H30.399C13.619 121.598 0 135.217 0 151.997zM425.593 45.599C425.593 20.428 406.775 0 364.794 0c-39.307 0-70.253 17.692-91.198 38.212-9.181-5.442-19.76-8.755-31.281-8.755-11.005 0-21.188 3.101-30.126 8.147C191.273 17.328 160.509 0 121.598 0 79.616 0 60.799 20.428 60.799 45.599s18.817 45.599 60.799 45.599h121.598l-.03-.243h.091l-.061.243h121.598c41.981 0 60.799-20.428 60.799-45.599zm-236.721 15.2h-67.274c-13.862 0-30.399-2.645-30.399-15.2s16.537-15.2 30.399-15.2c30.217 0 53.138 13.528 68.581 28.028l-1.307 2.372zm106.185-1.277c15.443-15.017 38.851-29.123 69.736-29.123 13.862 0 30.399 2.645 30.399 15.2s-16.537 15.2-30.399 15.2h-69.037l-.699-1.277zM30.399 455.992c0 16.781 13.619 30.399 30.399 30.399h151.997V243.196H30.399v212.796zM455.992 121.598h-181.12v91.198h211.52v-60.799c0-16.78-13.619-30.399-30.4-30.399zM274.872 486.392h150.721c16.781 0 30.399-13.619 30.399-30.399V243.196h-181.12v243.196z"/></g></svg>