<svg xmlns="http://www.w3.org/2000/svg" viewBox="0 0 18.875 18.875" width="512" height="512"><path d="M17.905 10.877v5.564c0 .348-.073.665-.221.956a2.472 2.472 0 0 1-.603.769 2.895 2.895 0 0 1-.88.519c-.335.126-.695.19-1.083.19H3.745c-.379 0-.736-.064-1.07-.19a2.876 2.876 0 0 1-.881-.519 2.551 2.551 0 0 1-.604-.769 2.084 2.084 0 0 1-.22-.956v-5.564c0-.33.073-.645.221-.944.148-.3.352-.559.604-.773.253-.215.547-.39.881-.52s.691-.196 1.07-.196h11.373a3.063 3.063 0 0 1 1.963.716c.255.215.455.474.603.773s.22.614.22.944zM4.507 17.062v-5.869h1.395v-.887H2.136v.862h1.207v5.894h1.164zm.569-13.653L3.517 0h1.357l.776 2.548L6.423 0h1.355l-1.46 3.409v3.97H5.076v-3.97zm3.665 8.646H7.576v3.133c0 .227.002.403.011.524.008.124-.009.202-.051.235-.035.135-.133.234-.3.298-.161.062-.286-.026-.373-.273-.018-.033-.02-.116-.011-.246.008-.132.011-.303.011-.515l-.024-3.156H5.673l.027 3.107c0 .244-.006.448-.014.613s-.006.289.014.374l.049.438a.49.49 0 0 0 .242.374.879.879 0 0 0 .473.128c.184 0 .362-.031.534-.091.175-.06.333-.141.481-.245.147-.105.256-.219.322-.337l-.023.62.963.025v-5.006zM7.675 3.93c0-.465.045-.851.127-1.152.104-.314.267-.538.496-.674.229-.169.52-.254.875-.254.312 0 .572.052.786.152.21.085.384.232.519.444.102.154.179.325.229.521.048.211.075.494.075.85v1.329c0 .483-.027.829-.075 1.042-.02.193-.102.409-.256.646-.151.21-.315.35-.492.418a1.651 1.651 0 0 1-.724.151c-.276 0-.533-.042-.759-.127a.785.785 0 0 1-.469-.366 1.78 1.78 0 0 1-.256-.572c-.049-.23-.076-.573-.076-1.039V3.93zm1.04 2.066c0 .135.051.256.153.362a.51.51 0 0 0 .728.005.486.486 0 0 0 .157-.367V3.245a.52.52 0 0 0-.157-.385.5.5 0 0 0-.361-.16.493.493 0 0 0-.36.16.523.523 0 0 0-.16.385v2.751zm3.79 9.634v-2.599c0-.498-.176-.854-.53-1.064a.817.817 0 0 0-.407-.102c-.28 0-.6.131-.963.393v-1.952H9.439v6.706l.964-.025.075-.418c.313.263.596.423.843.482.251.058.46.035.634-.071.174-.104.309-.277.405-.52.096-.24.145-.519.145-.83zM11.1 12.512c.135 0 .253.04.36.121.105.08.158.171.158.271v2.942c0 .101-.053.188-.158.265a.606.606 0 0 1-.36.115.613.613 0 0 1-.364-.115c-.104-.076-.155-.164-.155-.265v-2.942c0-.101.052-.191.155-.271a.586.586 0 0 1 .364-.121zm.543-5.653a.742.742 0 0 1-.062-.21 1.575 1.575 0 0 0-.04-.209 1.94 1.94 0 0 1-.024-.344V2.055h1.09v4.03c0 .103.037.189.113.267a.422.422 0 0 0 .305.114c.119 0 .22-.039.304-.114a.348.348 0 0 0 .13-.267v-4.03h1.011v5.172h-1.29l.023-.418c-.119.168-.231.3-.342.392a.823.823 0 0 1-.444.127.86.86 0 0 1-.482-.127.965.965 0 0 1-.292-.342zm4.538 8.443h-.873v.569c0 .136-.049.24-.146.316a.54.54 0 0 1-.347.113h-.181a.492.492 0 0 1-.334-.113.394.394 0 0 1-.135-.316v-1.205h2.016v-.697c0-.261-.004-.513-.013-.753a2.783 2.783 0 0 0-.062-.563.83.83 0 0 0-.312-.553 1.426 1.426 0 0 0-.607-.284 1.927 1.927 0 0 0-.711-.026c-.24.034-.447.113-.628.24-.226.152-.39.36-.493.623-.102.26-.152.624-.152 1.09v1.56c0 .657.175 1.128.521 1.406.32.261.657.393 1.012.393h.104c.398-.024.748-.194 1.053-.507.228-.228.342-.529.342-.899-.013-.12-.027-.252-.054-.394zm-.9-1.486h-1.115l.025-.619c0-.136.051-.246.152-.337a.539.539 0 0 1 .369-.134h.051c.15 0 .279.043.386.127a.423.423 0 0 1 .159.344l-.027.619z" fill="#FFF"/></svg>