<svg xmlns="http://www.w3.org/2000/svg" viewBox="0 0 195.4 160.9"><switch><g><path fill="#FFA400" d="M157.4 54.9h-9.5V50c0-3.9-3.2-7.1-7.1-7.1s-7.1 3.2-7.1 7.1v4.9h-9.5V50c0-9.2 7.5-16.6 16.6-16.6 9.2 0 16.6 7.5 16.6 16.6v4.9z"/><path fill="#003A70" d="M161.3 54.9h-41c-1.8 0-3.2 1.4-3.2 3.2v30.3c0 1.8 1.4 3.2 3.2 3.2h41c1.8 0 3.2-1.4 3.2-3.2V58.1c-.1-1.8-1.5-3.2-3.2-3.2zm-18.5 19.9v4.1c0 1.1-.9 2.1-2.1 2.1-1.1 0-2.1-.9-2.1-2.1v-4.1c-1.3-.7-2.1-2.1-2.1-3.7 0-2.3 1.9-4.2 4.2-4.2s4.2 1.9 4.2 4.2c.1 1.6-.8 3-2.1 3.7z"/><path fill="#FFA400" d="M116.1 50.4h-9.9c-1.6 0-2.9-1.3-2.9-2.9 0-1.6 1.3-2.9 2.9-2.9h9.9c1.6 0 2.9 1.3 2.9 2.9 0 1.6-1.3 2.9-2.9 2.9zM123.1 34.8c-.6 0-1.3-.2-1.8-.7l-7.8-6.4c-1.2-1-1.4-2.8-.4-4.1 1-1.2 2.8-1.4 4.1-.4l7.8 6.4c1.2 1 1.4 2.8.4 4.1-.7.7-1.5 1.1-2.3 1.1zM140.8 28c-1.6 0-2.9-1.3-2.9-2.9v-10c0-1.6 1.3-2.9 2.9-2.9s2.9 1.3 2.9 2.9v10c0 1.6-1.3 2.9-2.9 2.9zM158.4 34.8c-.8 0-1.7-.4-2.2-1.1-1-1.2-.8-3.1.4-4.1l7.8-6.4c1.2-1 3.1-.8 4.1.4 1 1.2.8 3.1-.4 4.1l-7.8 6.4c-.6.5-1.2.7-1.9.7zM175.3 50.4h-10c-1.6 0-2.9-1.3-2.9-2.9 0-1.6 1.3-2.9 2.9-2.9h10c1.6 0 2.9 1.3 2.9 2.9 0 1.6-1.3 2.9-2.9 2.9z"/><path fill="#003A70" d="M13.9 91.2V58.9h7.8v25.5h12.5v6.8H13.9zM60 80.1v1.8H43.5c.1.6.3 1.2.6 1.7s.7 1 1.2 1.3c.5.4 1.1.7 1.7.9.6.2 1.3.3 1.9.3 1.2 0 2.2-.2 3-.7.8-.4 1.5-1 2-1.7l5.2 3.3c-1.1 1.6-2.5 2.7-4.2 3.6-1.7.8-3.8 1.3-6.1 1.3-1.7 0-3.3-.3-4.8-.8s-2.8-1.3-4-2.3c-1.1-1-2-2.3-2.7-3.8-.7-1.5-1-3.2-1-5.1 0-1.9.3-3.5 1-5 .6-1.5 1.5-2.8 2.6-3.8s2.4-1.9 3.9-2.4c1.5-.6 3.1-.9 4.8-.9 1.7 0 3.2.3 4.6.8 1.4.6 2.6 1.4 3.6 2.4 1 1.1 1.8 2.4 2.3 3.9.6 1.6.9 3.3.9 5.2zm-6.9-2.8c0-1.2-.4-2.2-1.1-3.1-.7-.9-1.9-1.3-3.4-1.3-.7 0-1.4.1-2 .3-.6.2-1.1.5-1.6.9s-.8.9-1.1 1.4c-.3.5-.4 1.1-.5 1.7h9.7zM72 74.1v8.7c0 1.1.2 1.9.6 2.4.4.5 1.1.8 2.2.8.4 0 .8 0 1.2-.1.4-.1.8-.2 1-.3l.1 5.5c-.5.2-1.2.3-2 .5-.8.1-1.6.2-2.4.2-1.5 0-2.8-.2-3.8-.6-1-.4-1.9-.9-2.5-1.6-.6-.7-1.1-1.6-1.3-2.6s-.4-2.1-.4-3.3v-9.6H61v-5.6h3.6v-6H72v6h5.3v5.6H72zM101.5 75.2c-.6-.6-1.3-1.1-2.1-1.5-.8-.4-1.7-.6-2.6-.6-.7 0-1.3.1-1.9.4-.6.3-.9.7-.9 1.4 0 .6.3 1.1 1 1.4.7.3 1.7.6 3.2.9.9.2 1.7.4 2.6.8s1.6.8 2.3 1.3c.7.5 1.3 1.2 1.7 2 .4.8.6 1.7.6 2.8 0 1.4-.3 2.6-.9 3.6-.6 1-1.3 1.8-2.3 2.4-.9.6-2 1-3.1 1.3-1.2.3-2.3.4-3.5.4-1.9 0-3.7-.3-5.4-.9-1.8-.6-3.3-1.5-4.4-2.6l4.2-4.4c.7.7 1.5 1.3 2.5 1.8s2 .7 3.1.7c.6 0 1.2-.1 1.8-.4.6-.3.9-.8.9-1.5s-.4-1.2-1.1-1.6c-.7-.3-1.9-.7-3.4-1-.8-.2-1.6-.4-2.4-.7-.8-.3-1.5-.7-2.1-1.2-.6-.5-1.1-1.2-1.5-1.9-.4-.8-.6-1.7-.6-2.7 0-1.4.3-2.5.9-3.5.6-1 1.3-1.7 2.2-2.3.9-.6 1.9-1.1 3-1.3 1.1-.3 2.2-.4 3.3-.4 1.7 0 3.4.3 5 .8s3 1.3 4.1 2.4l-4.2 4.1zM13.9 128.6V96.3h21.7v6.6H21.4v6.1h13.4v6.2H21.4v6.7h15v6.7H13.9zM56.1 128.6v-12.4c0-.6-.1-1.2-.2-1.8-.1-.6-.3-1.1-.5-1.5-.2-.4-.6-.8-1-1-.4-.3-1-.4-1.7-.4s-1.3.1-1.8.4c-.5.3-.9.6-1.3 1.1-.3.5-.6 1-.8 1.6s-.3 1.2-.3 1.8v12.3H41V106h7.2v3.1h.1c.3-.5.6-1 1.1-1.4.4-.5 1-.9 1.5-1.2.6-.3 1.2-.6 1.9-.8.7-.2 1.4-.3 2.2-.3 1.5 0 2.8.3 3.9.8s1.9 1.3 2.6 2.1c.7.9 1.1 1.9 1.4 3 .3 1.1.4 2.2.4 3.4v14h-7.2zM82.9 113.2c-.4-.5-1-1-1.7-1.3-.7-.3-1.5-.5-2.2-.5-.8 0-1.5.2-2.1.5-.6.3-1.2.7-1.6 1.3s-.8 1.1-1.1 1.8c-.3.7-.4 1.4-.4 2.2 0 .8.1 1.5.4 2.2.2.7.6 1.3 1.1 1.8.5.5 1 1 1.7 1.3.7.3 1.4.5 2.2.5.8 0 1.5-.1 2.3-.4.7-.3 1.3-.7 1.8-1.3l4.1 5.1c-.9.9-2.2 1.6-3.6 2.1-1.5.5-3.1.8-4.7.8-1.8 0-3.5-.3-5-.8-1.6-.5-2.9-1.3-4.1-2.4-1.1-1-2-2.3-2.7-3.8-.7-1.5-1-3.2-1-5.1 0-1.9.3-3.5 1-5s1.6-2.8 2.7-3.8 2.5-1.9 4.1-2.4c1.6-.6 3.2-.8 5-.8.8 0 1.6.1 2.4.2.8.2 1.6.4 2.3.6.7.3 1.4.6 2.1 1 .6.4 1.2.8 1.6 1.3l-4.6 4.9zM104.7 112.1c-.3-.1-.7-.2-1-.2h-.9c-1 0-1.8.2-2.5.5-.7.4-1.2.8-1.6 1.3-.4.5-.7 1.1-.9 1.7-.2.6-.3 1.1-.3 1.6v11.6H90v-22.7h7.2v3.3h.1c.6-1.2 1.4-2.1 2.5-2.8 1.1-.7 2.3-1.1 3.7-1.1h.9c.3 0 .5.1.7.1l-.4 6.7zM122.3 132c-.5 1.2-1 2.2-1.5 3.2-.6.9-1.2 1.7-2 2.4s-1.7 1.1-2.7 1.5c-1 .3-2.3.5-3.7.5-.7 0-1.4 0-2.2-.1-.7-.1-1.4-.2-1.9-.4l.8-6.3 1.2.3c.4.1.8.1 1.2.1 1.2 0 2-.3 2.5-.8s1-1.3 1.3-2.3l.7-1.9-9.5-22.3h8.3l5.1 14.6h.1l4.5-14.6h7.9L122.3 132zM159.7 117.2c0 1.6-.2 3.1-.7 4.6-.5 1.5-1.2 2.7-2.1 3.9-.9 1.1-2.1 2-3.4 2.7-1.3.7-2.9 1-4.6 1-1.4 0-2.7-.3-4-.8-1.2-.6-2.2-1.3-2.9-2.3h-.1v13.5h-7.5v-33.6h7.1v2.8h.1c.7-.9 1.7-1.7 2.9-2.4s2.7-1 4.4-1c1.6 0 3.1.3 4.5 1 1.3.6 2.5 1.5 3.4 2.6.9 1.1 1.6 2.4 2.1 3.8.5 1.1.8 2.6.8 4.2zm-7.3 0c0-.7-.1-1.4-.3-2.1-.2-.7-.6-1.3-1-1.8s-1-1-1.7-1.3c-.7-.3-1.4-.5-2.3-.5-.9 0-1.6.2-2.3.5-.7.3-1.2.8-1.7 1.3s-.8 1.2-1.1 1.9c-.3.7-.4 1.4-.4 2.1s.1 1.4.4 2.1c.3.7.6 1.3 1.1 1.9.5.5 1 1 1.7 1.3.7.3 1.4.5 2.3.5.9 0 1.7-.2 2.3-.5.7-.3 1.2-.8 1.7-1.3.4-.5.8-1.2 1-1.9.2-.8.3-1.5.3-2.2zM171.6 111.5v8.7c0 1.1.2 1.9.6 2.4.4.5 1.1.8 2.2.8.4 0 .8 0 1.2-.1s.8-.2 1-.3l.1 5.5c-.5.2-1.2.3-2 .5-.8.1-1.6.2-2.4.2-1.5 0-2.8-.2-3.8-.6-1-.4-1.9-.9-2.5-1.6-.6-.7-1.1-1.6-1.3-2.6s-.4-2.1-.4-3.3v-9.6h-3.6v-5.6h3.6v-6h7.3v6h5.3v5.6h-5.3zM84.2 58.3c-2.2 0-4 1.6-4 3.7 0 2.2 1.5 3.6 3.7 3.6.2 0 .4 0 .5-.1-.4 1.6-1.9 2.8-3.4 3h-.3V72h.4c1.8-.2 3.5-1 4.8-2.2 1.7-1.6 2.6-4 2.6-6.8 0-2.7-1.8-4.7-4.3-4.7z"/></g></switch></svg>