<svg version="1" xmlns="http://www.w3.org/2000/svg" width="400" height="112" viewBox="0 0 300.000000 84.000000"><path d="M111 11.7C101 15.2 95.2 20 91 28c-2.1 3.9-2.4 5.9-2.4 16-.1 10.1.2 12.1 2.2 16.2C95.6 69.9 106 76 117.6 76c7 0 15.4-2.5 15.4-4.6 0-2.8-2.5-9.4-3.7-9.9-.7-.2-2.5 0-3.9.5-6.8 2.6-15.6.3-19.5-5.1-2.1-3-2.4-4.5-2.4-12.9 0-7.6.4-10.1 1.9-12.7 3.1-5.1 7.1-6.7 15.4-6.1 4.6.3 7.7.1 8.6-.6 1.7-1.3 2.9-7.6 1.8-9.3-1.9-3-15.1-5.4-20.2-3.6zM157.5 12.3c-7.9 3.2-12.6 7.2-15.8 13.2-5 9.6-4.8 28.4.5 38 7.9 14.5 30.3 16.9 41.1 4.4 5.4-6.3 7.7-13.3 7.7-23.9 0-10.3-2.2-17.3-7.2-23.3-6.3-7.6-18.7-11.5-26.3-8.4zm13.1 14.5c3.8 3.1 5.4 8.4 5.4 17.4-.1 9.6-2 14.8-6.6 17.9-3.7 2.4-5.9 2.4-9.9-.1-4.2-2.6-6.5-9-6.5-17.9 0-12.8 3.8-19 11.5-19 2.3-.1 4.9.7 6.1 1.7zM206.2 11.9c-1.8.5-3.5 1.1-3.8 1.4-.3.3-.6 13.9-.6 30.3 0 27.7.2 29.9 1.9 31.2 2.2 1.7 10.1 1 11.5-.9.5-.8.7-6.2.4-12.5-.3-6.1-.2-11.4.1-11.8 1-.9 5.3 3.5 5.3 5.5 0 .9.7 2.2 1.5 2.9.8.7 1.5 2 1.5 2.9 0 .9.5 2.2 1.1 2.8 1.2 1.2 3.3 4.6 4.8 7.9 1.3 2.9 6.4 4.8 10.8 4.1 6.7-1.1 6.7-1.5-.1-13.2-2-3.3-3.9-6.7-4.2-7.5-.4-.8-1.3-2.3-2.1-3.2-1.1-1.3-1.2-2.1-.3-3.7.6-1.2 1.5-2.1 2-2.1s2.1-1.8 3.5-4c2-3.2 2.5-5.2 2.5-10.3 0-5.6-.4-7-3.1-10.6-4.3-6-11.9-9.4-21.9-9.7-4.1-.2-9 .1-10.8.5zm18.3 14.7c2 1.3 2.5 2.5 2.5 5.8 0 4.8-1.9 8-6.2 10.2-4.8 2.5-5.4 1.6-5.2-8.2.2-4.9.3-9 .3-9.2.3-.9 6.6.1 8.6 1.4zM26.6 12.8c-9 .1-15.5.7-16.3 1.4C9.3 15 9 21.4 9 44.1 9 71.8 9.1 73 11 74c1.2.6 8.3.9 18.7.8l16.8-.3v-12l-10.2-.3c-11.6-.3-11.8-.5-11.1-8.8l.3-3.9 7.5-.3c8.4-.3 10-1.4 10-6.8 0-5.1-2.2-6.6-9.7-6.2-7 .3-8.3-.5-8.3-5.3 0-5 1.7-5.8 12-6.1l9.5-.3v-5.4c0-6.8.3-6.7-19.9-6.3zM254.7 13.2c-1.6 1-2.2 56.9-.7 59.8 1 1.9 2.1 2 17.3 2 11.4 0 16.7-.4 17.5-1.2.7-.7 1.2-3 1.2-5.3s-.5-4.6-1.2-5.3c-.8-.8-4.6-1.2-10.3-1.2-4.9 0-9.6-.4-10.3-.9-.9-.5-1.2-2.5-1-6.2l.3-5.4 7.5-.3c8.3-.3 10-1.4 10-6.5 0-5.8-1.4-6.8-9.1-6.5-7.7.2-8.9-.5-8.9-5.4 0-4.8 2.2-5.8 12.5-5.8 10 0 10.5-.3 10.5-5.9 0-5.8-1.1-6.2-18.4-6.4-8.7-.1-16.3.1-16.9.5zM55.4 39.5c-.3 1.4-.3 4.1 0 6l.7 3.5H66c5.4 0 10.5-.3 11.4-.6 2-.8 3.1-6.6 1.7-9.3C78 37.2 77.1 37 67 37c-10.9 0-11 0-11.6 2.5z"/></svg>