<svg xmlns="http://www.w3.org/2000/svg" width="512" height="512" viewBox="0 0 32.028 32.028"><path d="M31.998.772a1 1 0 0 0-1.213-.728l-4.004 1a1 1 0 0 0-.746.813l-.507 3.208L.878 8.022c-.019.002-.034.016-.055.02-.023.004-.044-.003-.068.003-.057.014-.1.049-.15.071-.057.024-.11.043-.16.076a.995.995 0 0 0-.182.173c-.029.031-.065.049-.09.083-.006.008-.006.018-.01.026a1.029 1.029 0 0 0-.113.274c-.01.035-.03.065-.036.101-.02.132-.02.271.014.409l3.004 12 1 4c.008.029.025.052.035.079a.88.88 0 0 0 .061.137.95.95 0 0 0 .122.182c.029.034.06.068.093.101.061.053.125.094.194.131.036.021.068.043.107.059.112.042.232.068.357.068h21.022a.999.999 0 1 0 0-2H5.783l-.5-2h18.739a.985.985 0 0 0 .352-.063c.045-.018.08-.047.121-.069.062-.033.126-.062.179-.107.039-.033.065-.078.102-.119.042-.051.089-.095.122-.15.027-.053.039-.113.059-.172.021-.053.047-.103.059-.158l.004-.021v-.011l2.89-18.321 3.36-.839a.998.998 0 0 0 .728-1.213zM4.783 20.014L2.244 9.873l3.104-.372 1.505 10.513h-2.07zm4.09 0L7.336 9.263l3.119-.374.505 11.125H8.873zm6.183 0h-2.089l-.518-11.365 3.116-.373-.509 11.738zm4.077 0H17.06l.52-11.98 3.102-.371-1.549 12.351zm4.013 0h-1.994l1.576-12.598 2.133-.255-1.715 12.853zm-14.141 8a2 2 0 0 0 0 4 2 2 0 1 0 0-4zm13.016 0a2 2 0 1 0 0 4 2.002 2.002 0 0 0 2.002-1.999 2.005 2.005 0 0 0-2.002-2.001z" fill="#FFF"/></svg>